USFL
nRows=172
nColumns=2
inDegrees=yes
endheader
time	soleus_r	
1.74989	 27.710814	
1.81238	 27.685459	
1.87488	 27.691299	
1.93738	 27.679440	
1.99987	 27.682940	
2.06237	 27.691155	
2.12486	 27.711875	
2.18736	 27.703773	
2.24986	 27.706819	
2.31235	 27.712602	
2.37485	 27.679366	
2.43734	 27.664671	
2.49984	 27.660510	
2.56234	 27.630658	
2.62483	 27.636532	
2.68733	 27.655401	
2.74982	 27.579658	
2.81232	 27.576284	
2.87482	 27.544740	
2.93731	 27.591949	
2.99981	 27.589828	
3.0623	 27.572587	
3.1248	 27.583694	
3.1873	 27.573353	
3.24979	 27.577518	
3.31229	 27.572365	
3.37478	 27.515651	
3.43728	 27.488772	
3.49978	 27.413373	
3.56227	 27.292924	
3.62477	 27.184145	
3.68726	 27.077778	
3.74976	 27.123744	
3.81226	 27.104097	
3.87475	 26.976972	
3.93725	 26.895186	
3.99974	 26.917313	
4.06224	 26.902132	
4.12474	 26.909071	
4.18723	 26.843383	
4.24973	 26.865347	
4.31222	 26.801629	
4.37472	 26.749074	
4.43722	 26.788601	
4.49971	 26.720570	
4.56221	 26.750332	
4.6247	 26.764654	
4.6872	 26.781843	
4.7497	 26.831973	
4.81219	 26.944240	
4.87469	 26.986832	
4.93718	 26.998123	
4.99968	 25.751547	
5.06218	 25.885500	
5.12467	 25.904166	
5.18717	 25.981524	
5.24966	 26.031587	
5.31216	 26.030733	
5.37466	 26.113005	
5.43715	 26.103843	
5.49965	 22.212363	
5.56214	 22.238677	
5.62464	 22.006366	
5.68714	 21.976928	
5.74963	 21.848943	
5.81213	 21.710168	
5.87462	 21.711395	
5.93712	 21.631234	
5.99962	 21.590380	
6.06211	 21.556775	
6.12461	 21.517901	
6.1871	 21.479517	
6.2496	 21.537560	
6.3121	 21.512302	
6.37459	 21.501110	
6.43709	 21.511766	
6.49958	 21.525118	
6.56208	 21.557889	
6.62458	 21.538085	
6.68707	 21.558101	
6.74957	 21.580978	
6.81206	 21.663120	
6.87456	 21.644234	
6.93706	 21.631244	
6.99955	 21.568206	
7.06205	 21.533889	
7.12454	 21.411508	
7.18704	 21.385632	
7.24954	 21.382149	
7.31203	 21.428534	
7.37453	 21.410996	
7.43702	 21.421013	
7.49952	 21.380203	
7.56202	 21.364395	
7.62451	 21.332794	
7.68701	 21.325445	
7.7495	 21.357039	
7.812	 21.376675	
7.8745	 21.377899	
7.93699	 21.396269	
7.99949	 21.349443	
8.06198	 21.375526	
8.12448	 21.393288	
8.18698	 21.404756	
8.24947	 21.375368	
8.31197	 21.384007	
8.37446	 21.369708	
8.43696	 21.338077	
8.49946	 21.322352	
8.56195	 21.331411	
8.62445	 21.365384	
8.68694	 21.366669	
8.74944	 21.355543	
8.81194	 21.424685	
8.87443	 21.414525	
8.93693	 21.438138	
8.99942	 21.460551	
9.06192	 21.467836	
9.12442	 21.480475	
9.18691	 21.491004	
9.24941	 21.568950	
9.3119	 21.602811	
9.3744	 21.694389	
9.4369	 21.640114	
9.49939	 21.663665	
9.56189	 21.664694	
9.62438	 21.663660	
9.68688	 21.674652	
9.74938	 21.709399	
9.81187	 21.714303	
9.87437	 21.708168	
9.93686	 21.771515	
9.99936	 21.745317	
10.0619	 21.772040	
10.1244	 21.741665	
10.1868	 21.722617	
10.2493	 21.704088	
10.3118	 21.635153	
10.3743	 21.630672	
10.4368	 21.612089	
10.4993	 21.611767	
10.5618	 21.614066	
10.6243	 21.598584	
10.6868	 21.634536	
10.7493	 21.650373	
10.8118	 21.669113	
10.8743	 21.755212	
10.9368	 21.749373	
10.9993	 21.801673	
11.0618	 21.869381	
11.1243	 21.877379	
11.1868	 21.888429	
11.2493	 21.925945	
11.3118	 21.916179	
11.3743	 21.920575	
11.4368	 21.914984	
11.4993	 21.919895	
11.5618	 21.907981	
11.6243	 21.858096	
11.6868	 21.826461	
11.7492	 21.857229	
11.8117	 21.858548	
11.8742	 21.838393	
11.9367	 21.757591	
11.9992	 21.613126	
12.0617	 21.609678	
12.1242	 21.556768	
12.1867	 21.530194	
12.2492	 21.525704	
12.3117	 21.505688	
12.3742	 21.463622	
12.4367	 21.454705	
